<mxfile host="app.diagrams.net" modified="2024-06-05T21:32:05.267Z" agent="Mozilla/5.0 (Windows NT 10.0; Win64; x64) AppleWebKit/537.36 (KHTML, like Gecko) Chrome/125.0.0.0 Safari/537.36" etag="2B6lqcLMKDxHglfqxnQC" version="24.4.4" type="device">
  <diagram id="C5RBs43oDa-KdzZeNtuy" name="Page-1">
    <mxGraphModel dx="794" dy="1623" grid="1" gridSize="10" guides="1" tooltips="1" connect="1" arrows="1" fold="1" page="1" pageScale="1" pageWidth="827" pageHeight="1169" math="0" shadow="0">
      <root>
        <mxCell id="WIyWlLk6GJQsqaUBKTNV-0" />
        <mxCell id="WIyWlLk6GJQsqaUBKTNV-1" parent="WIyWlLk6GJQsqaUBKTNV-0" />
        <mxCell id="JWLpuhSdlaxlwlLM1k3Y-0" value="Use Case Diagram" style="text;html=1;align=center;verticalAlign=middle;whiteSpace=wrap;rounded=0;" parent="WIyWlLk6GJQsqaUBKTNV-1" vertex="1">
          <mxGeometry x="50" y="-580" width="240" height="30" as="geometry" />
        </mxCell>
        <mxCell id="JWLpuhSdlaxlwlLM1k3Y-1" value="User&lt;div&gt;&lt;br&gt;&lt;/div&gt;" style="shape=umlActor;verticalLabelPosition=bottom;verticalAlign=top;html=1;outlineConnect=0;" parent="WIyWlLk6GJQsqaUBKTNV-1" vertex="1">
          <mxGeometry x="20" y="-370" width="50" height="90" as="geometry" />
        </mxCell>
        <mxCell id="JWLpuhSdlaxlwlLM1k3Y-3" value="" style="ellipse;whiteSpace=wrap;html=1;" parent="WIyWlLk6GJQsqaUBKTNV-1" vertex="1">
          <mxGeometry x="240" y="-550" width="110" height="70" as="geometry" />
        </mxCell>
        <mxCell id="JWLpuhSdlaxlwlLM1k3Y-4" value="" style="ellipse;whiteSpace=wrap;html=1;" parent="WIyWlLk6GJQsqaUBKTNV-1" vertex="1">
          <mxGeometry x="240" y="-440" width="110" height="70" as="geometry" />
        </mxCell>
        <mxCell id="JWLpuhSdlaxlwlLM1k3Y-5" value="" style="ellipse;whiteSpace=wrap;html=1;" parent="WIyWlLk6GJQsqaUBKTNV-1" vertex="1">
          <mxGeometry x="240" y="-130" width="110" height="70" as="geometry" />
        </mxCell>
        <mxCell id="JWLpuhSdlaxlwlLM1k3Y-6" value="" style="ellipse;whiteSpace=wrap;html=1;" parent="WIyWlLk6GJQsqaUBKTNV-1" vertex="1">
          <mxGeometry x="240" y="-240" width="110" height="70" as="geometry" />
        </mxCell>
        <mxCell id="JWLpuhSdlaxlwlLM1k3Y-7" value="" style="ellipse;whiteSpace=wrap;html=1;" parent="WIyWlLk6GJQsqaUBKTNV-1" vertex="1">
          <mxGeometry x="240" y="-340" width="110" height="70" as="geometry" />
        </mxCell>
        <mxCell id="JWLpuhSdlaxlwlLM1k3Y-8" value="" style="endArrow=none;html=1;rounded=0;" parent="WIyWlLk6GJQsqaUBKTNV-1" target="JWLpuhSdlaxlwlLM1k3Y-3" edge="1">
          <mxGeometry width="50" height="50" relative="1" as="geometry">
            <mxPoint x="70" y="-370" as="sourcePoint" />
            <mxPoint x="120" y="-420" as="targetPoint" />
          </mxGeometry>
        </mxCell>
        <mxCell id="JWLpuhSdlaxlwlLM1k3Y-10" value="" style="endArrow=none;html=1;rounded=0;entryX=0;entryY=0.5;entryDx=0;entryDy=0;" parent="WIyWlLk6GJQsqaUBKTNV-1" target="JWLpuhSdlaxlwlLM1k3Y-4" edge="1">
          <mxGeometry width="50" height="50" relative="1" as="geometry">
            <mxPoint x="80" y="-360" as="sourcePoint" />
            <mxPoint x="266" y="-480" as="targetPoint" />
          </mxGeometry>
        </mxCell>
        <mxCell id="JWLpuhSdlaxlwlLM1k3Y-11" value="" style="endArrow=none;html=1;rounded=0;entryX=0;entryY=0.5;entryDx=0;entryDy=0;" parent="WIyWlLk6GJQsqaUBKTNV-1" target="JWLpuhSdlaxlwlLM1k3Y-7" edge="1">
          <mxGeometry width="50" height="50" relative="1" as="geometry">
            <mxPoint x="80" y="-340" as="sourcePoint" />
            <mxPoint x="250" y="-395" as="targetPoint" />
          </mxGeometry>
        </mxCell>
        <mxCell id="JWLpuhSdlaxlwlLM1k3Y-12" value="" style="endArrow=none;html=1;rounded=0;" parent="WIyWlLk6GJQsqaUBKTNV-1" target="JWLpuhSdlaxlwlLM1k3Y-6" edge="1">
          <mxGeometry width="50" height="50" relative="1" as="geometry">
            <mxPoint x="80" y="-320" as="sourcePoint" />
            <mxPoint x="248" y="-304" as="targetPoint" />
          </mxGeometry>
        </mxCell>
        <mxCell id="JWLpuhSdlaxlwlLM1k3Y-13" value="" style="endArrow=none;html=1;rounded=0;" parent="WIyWlLk6GJQsqaUBKTNV-1" target="JWLpuhSdlaxlwlLM1k3Y-5" edge="1">
          <mxGeometry width="50" height="50" relative="1" as="geometry">
            <mxPoint x="80" y="-290" as="sourcePoint" />
            <mxPoint x="218" y="-274" as="targetPoint" />
          </mxGeometry>
        </mxCell>
        <mxCell id="JWLpuhSdlaxlwlLM1k3Y-14" value="Create Note" style="text;html=1;align=center;verticalAlign=middle;whiteSpace=wrap;rounded=0;" parent="WIyWlLk6GJQsqaUBKTNV-1" vertex="1">
          <mxGeometry x="265" y="-530" width="60" height="30" as="geometry" />
        </mxCell>
        <mxCell id="JWLpuhSdlaxlwlLM1k3Y-15" value="List Notes" style="text;html=1;align=center;verticalAlign=middle;whiteSpace=wrap;rounded=0;" parent="WIyWlLk6GJQsqaUBKTNV-1" vertex="1">
          <mxGeometry x="270" y="-420" width="60" height="30" as="geometry" />
        </mxCell>
        <mxCell id="JWLpuhSdlaxlwlLM1k3Y-16" value="View Note" style="text;html=1;align=center;verticalAlign=middle;whiteSpace=wrap;rounded=0;" parent="WIyWlLk6GJQsqaUBKTNV-1" vertex="1">
          <mxGeometry x="260" y="-320" width="60" height="30" as="geometry" />
        </mxCell>
        <mxCell id="JWLpuhSdlaxlwlLM1k3Y-17" value="Update Note" style="text;html=1;align=center;verticalAlign=middle;whiteSpace=wrap;rounded=0;" parent="WIyWlLk6GJQsqaUBKTNV-1" vertex="1">
          <mxGeometry x="265" y="-220" width="60" height="30" as="geometry" />
        </mxCell>
        <mxCell id="JWLpuhSdlaxlwlLM1k3Y-21" value="Delete Note" style="text;html=1;align=center;verticalAlign=middle;whiteSpace=wrap;rounded=0;" parent="WIyWlLk6GJQsqaUBKTNV-1" vertex="1">
          <mxGeometry x="270" y="-110" width="60" height="30" as="geometry" />
        </mxCell>
        <mxCell id="PPtSsvn3vaNPp5F-Dr6d-90" value="Note " style="swimlane;fontStyle=0;align=center;verticalAlign=top;childLayout=stackLayout;horizontal=1;startSize=26;horizontalStack=0;resizeParent=1;resizeLast=0;collapsible=1;marginBottom=0;rounded=0;shadow=0;strokeWidth=1;" vertex="1" parent="WIyWlLk6GJQsqaUBKTNV-1">
          <mxGeometry x="166" y="130" width="160" height="200" as="geometry">
            <mxRectangle x="550" y="140" width="160" height="26" as="alternateBounds" />
          </mxGeometry>
        </mxCell>
        <mxCell id="PPtSsvn3vaNPp5F-Dr6d-91" value="- id: int        " style="text;align=left;verticalAlign=top;spacingLeft=4;spacingRight=4;overflow=hidden;rotatable=0;points=[[0,0.5],[1,0.5]];portConstraint=eastwest;" vertex="1" parent="PPtSsvn3vaNPp5F-Dr6d-90">
          <mxGeometry y="26" width="160" height="26" as="geometry" />
        </mxCell>
        <mxCell id="PPtSsvn3vaNPp5F-Dr6d-118" value="- title: str     " style="text;align=left;verticalAlign=top;spacingLeft=4;spacingRight=4;overflow=hidden;rotatable=0;points=[[0,0.5],[1,0.5]];portConstraint=eastwest;" vertex="1" parent="PPtSsvn3vaNPp5F-Dr6d-90">
          <mxGeometry y="52" width="160" height="26" as="geometry" />
        </mxCell>
        <mxCell id="PPtSsvn3vaNPp5F-Dr6d-96" value="- content: str   " style="text;align=left;verticalAlign=top;spacingLeft=4;spacingRight=4;overflow=hidden;rotatable=0;points=[[0,0.5],[1,0.5]];portConstraint=eastwest;" vertex="1" parent="PPtSsvn3vaNPp5F-Dr6d-90">
          <mxGeometry y="78" width="160" height="26" as="geometry" />
        </mxCell>
        <mxCell id="PPtSsvn3vaNPp5F-Dr6d-120" value="- created_at: datetime " style="text;align=left;verticalAlign=top;spacingLeft=4;spacingRight=4;overflow=hidden;rotatable=0;points=[[0,0.5],[1,0.5]];portConstraint=eastwest;" vertex="1" parent="PPtSsvn3vaNPp5F-Dr6d-90">
          <mxGeometry y="104" width="160" height="26" as="geometry" />
        </mxCell>
        <mxCell id="PPtSsvn3vaNPp5F-Dr6d-92" value="" style="line;html=1;strokeWidth=1;align=left;verticalAlign=middle;spacingTop=-1;spacingLeft=3;spacingRight=3;rotatable=0;labelPosition=right;points=[];portConstraint=eastwest;" vertex="1" parent="PPtSsvn3vaNPp5F-Dr6d-90">
          <mxGeometry y="130" width="160" height="10" as="geometry" />
        </mxCell>
        <mxCell id="PPtSsvn3vaNPp5F-Dr6d-97" value="+ save(): void   " style="text;align=left;verticalAlign=top;spacingLeft=4;spacingRight=4;overflow=hidden;rotatable=0;points=[[0,0.5],[1,0.5]];portConstraint=eastwest;" vertex="1" parent="PPtSsvn3vaNPp5F-Dr6d-90">
          <mxGeometry y="140" width="160" height="26" as="geometry" />
        </mxCell>
        <mxCell id="PPtSsvn3vaNPp5F-Dr6d-122" value="+ __str__(): str " style="text;align=left;verticalAlign=top;spacingLeft=4;spacingRight=4;overflow=hidden;rotatable=0;points=[[0,0.5],[1,0.5]];portConstraint=eastwest;" vertex="1" parent="PPtSsvn3vaNPp5F-Dr6d-90">
          <mxGeometry y="166" width="160" height="26" as="geometry" />
        </mxCell>
        <mxCell id="PPtSsvn3vaNPp5F-Dr6d-100" value="NoteForm " style="swimlane;fontStyle=0;align=center;verticalAlign=top;childLayout=stackLayout;horizontal=1;startSize=26;horizontalStack=0;resizeParent=1;resizeLast=0;collapsible=1;marginBottom=0;rounded=0;shadow=0;strokeWidth=1;" vertex="1" parent="WIyWlLk6GJQsqaUBKTNV-1">
          <mxGeometry x="20" y="420" width="160" height="80" as="geometry">
            <mxRectangle x="550" y="140" width="160" height="26" as="alternateBounds" />
          </mxGeometry>
        </mxCell>
        <mxCell id="PPtSsvn3vaNPp5F-Dr6d-101" value="+ title: CharField " style="text;align=left;verticalAlign=top;spacingLeft=4;spacingRight=4;overflow=hidden;rotatable=0;points=[[0,0.5],[1,0.5]];portConstraint=eastwest;" vertex="1" parent="PPtSsvn3vaNPp5F-Dr6d-100">
          <mxGeometry y="26" width="160" height="22" as="geometry" />
        </mxCell>
        <mxCell id="PPtSsvn3vaNPp5F-Dr6d-123" value="+ content: TextField " style="text;align=left;verticalAlign=top;spacingLeft=4;spacingRight=4;overflow=hidden;rotatable=0;points=[[0,0.5],[1,0.5]];portConstraint=eastwest;" vertex="1" parent="PPtSsvn3vaNPp5F-Dr6d-100">
          <mxGeometry y="48" width="160" height="22" as="geometry" />
        </mxCell>
        <mxCell id="PPtSsvn3vaNPp5F-Dr6d-107" value=" NoteView       " style="swimlane;fontStyle=0;align=center;verticalAlign=top;childLayout=stackLayout;horizontal=1;startSize=26;horizontalStack=0;resizeParent=1;resizeLast=0;collapsible=1;marginBottom=0;rounded=0;shadow=0;strokeWidth=1;" vertex="1" parent="WIyWlLk6GJQsqaUBKTNV-1">
          <mxGeometry x="306" y="420" width="160" height="180" as="geometry">
            <mxRectangle x="550" y="140" width="160" height="26" as="alternateBounds" />
          </mxGeometry>
        </mxCell>
        <mxCell id="PPtSsvn3vaNPp5F-Dr6d-110" value="+ home(request)  " style="text;align=left;verticalAlign=top;spacingLeft=4;spacingRight=4;overflow=hidden;rotatable=0;points=[[0,0.5],[1,0.5]];portConstraint=eastwest;" vertex="1" parent="PPtSsvn3vaNPp5F-Dr6d-107">
          <mxGeometry y="26" width="160" height="26" as="geometry" />
        </mxCell>
        <mxCell id="PPtSsvn3vaNPp5F-Dr6d-111" value="+ list_notes(request) " style="text;align=left;verticalAlign=top;spacingLeft=4;spacingRight=4;overflow=hidden;rotatable=0;points=[[0,0.5],[1,0.5]];portConstraint=eastwest;" vertex="1" parent="PPtSsvn3vaNPp5F-Dr6d-107">
          <mxGeometry y="52" width="160" height="26" as="geometry" />
        </mxCell>
        <mxCell id="PPtSsvn3vaNPp5F-Dr6d-112" value="+ create_note(request)  " style="text;align=left;verticalAlign=top;spacingLeft=4;spacingRight=4;overflow=hidden;rotatable=0;points=[[0,0.5],[1,0.5]];portConstraint=eastwest;" vertex="1" parent="PPtSsvn3vaNPp5F-Dr6d-107">
          <mxGeometry y="78" width="160" height="22" as="geometry" />
        </mxCell>
        <mxCell id="PPtSsvn3vaNPp5F-Dr6d-113" value="+ update_note(request, pk) " style="text;align=left;verticalAlign=top;spacingLeft=4;spacingRight=4;overflow=hidden;rotatable=0;points=[[0,0.5],[1,0.5]];portConstraint=eastwest;" vertex="1" parent="PPtSsvn3vaNPp5F-Dr6d-107">
          <mxGeometry y="100" width="160" height="26" as="geometry" />
        </mxCell>
        <mxCell id="PPtSsvn3vaNPp5F-Dr6d-114" value="+ delete_note(request, pk) " style="text;align=left;verticalAlign=top;spacingLeft=4;spacingRight=4;overflow=hidden;rotatable=0;points=[[0,0.5],[1,0.5]];portConstraint=eastwest;" vertex="1" parent="PPtSsvn3vaNPp5F-Dr6d-107">
          <mxGeometry y="126" width="160" height="26" as="geometry" />
        </mxCell>
        <mxCell id="PPtSsvn3vaNPp5F-Dr6d-115" value="+ view_note(request, pk) " style="text;align=left;verticalAlign=top;spacingLeft=4;spacingRight=4;overflow=hidden;rotatable=0;points=[[0,0.5],[1,0.5]];portConstraint=eastwest;" vertex="1" parent="PPtSsvn3vaNPp5F-Dr6d-107">
          <mxGeometry y="152" width="160" height="26" as="geometry" />
        </mxCell>
        <mxCell id="PPtSsvn3vaNPp5F-Dr6d-116" value="" style="endArrow=classic;html=1;rounded=0;exitX=0.5;exitY=0;exitDx=0;exitDy=0;" edge="1" parent="WIyWlLk6GJQsqaUBKTNV-1" source="PPtSsvn3vaNPp5F-Dr6d-100">
          <mxGeometry width="50" height="50" relative="1" as="geometry">
            <mxPoint x="106" y="300" as="sourcePoint" />
            <mxPoint x="246" y="330" as="targetPoint" />
            <Array as="points">
              <mxPoint x="100" y="370" />
              <mxPoint x="246" y="370" />
            </Array>
          </mxGeometry>
        </mxCell>
        <mxCell id="PPtSsvn3vaNPp5F-Dr6d-117" value="" style="endArrow=none;html=1;rounded=0;exitX=0.5;exitY=0;exitDx=0;exitDy=0;" edge="1" parent="WIyWlLk6GJQsqaUBKTNV-1" source="PPtSsvn3vaNPp5F-Dr6d-107">
          <mxGeometry width="50" height="50" relative="1" as="geometry">
            <mxPoint x="106" y="300" as="sourcePoint" />
            <mxPoint x="246" y="370" as="targetPoint" />
            <Array as="points">
              <mxPoint x="386" y="370" />
            </Array>
          </mxGeometry>
        </mxCell>
        <mxCell id="PPtSsvn3vaNPp5F-Dr6d-124" value="Diagram Class" style="text;html=1;align=center;verticalAlign=middle;whiteSpace=wrap;rounded=0;" vertex="1" parent="WIyWlLk6GJQsqaUBKTNV-1">
          <mxGeometry x="100" width="130" height="30" as="geometry" />
        </mxCell>
      </root>
    </mxGraphModel>
  </diagram>
</mxfile>
